<svg width="96" height="96" xmlns="http://www.w3.org/2000/svg">

 <g>
  <title>background</title>
  <rect fill="none" id="canvas_background" height="402" width="582" y="-1" x="-1"/>
 </g>
 <g>
  <title fill="#ffffff">Layer 1</title>
  <path fill="#ffffff" id="svg_1" d="m12,52l62.344002,0l-21.456001,21.456001c-1.562,1.561996 -1.562,4.095001 -0.000999,5.655998c1.562,1.562004 4.096001,1.562004 5.657997,0l28.283005,-28.284l0,0c0.185997,-0.186001 0.351997,-0.390999 0.497993,-0.608997c0.067001,-0.101002 0.114006,-0.210003 0.172005,-0.315002c0.066002,-0.124001 0.141998,-0.242001 0.195,-0.373001c0.056999,-0.134998 0.088997,-0.274998 0.128998,-0.414997c0.033005,-0.111 0.076004,-0.217003 0.098999,-0.331001c0.052002,-0.259998 0.079002,-0.521999 0.079002,-0.785l0,0c0,-0.002998 -0.000999,-0.006001 -0.000999,-0.008999c-0.000999,-0.259003 -0.027,-0.519001 -0.078003,-0.774002c-0.023994,-0.119999 -0.069,-0.230999 -0.103996,-0.348999c-0.039001,-0.132999 -0.069,-0.268002 -0.123001,-0.396999c-0.057999,-0.139 -0.136002,-0.264999 -0.208,-0.396c-0.054001,-0.098 -0.097,-0.198002 -0.158997,-0.292c-0.146004,-0.221001 -0.314003,-0.427002 -0.501007,-0.614002l-28.281998,-28.280998c-1.562,-1.562 -4.094997,-1.562 -5.656998,-0.001001c-1.562,1.562 -1.562,4.095001 0,5.658001l21.456001,21.455l-62.343002,0c-2.209,0 -4,1.791 -4,4c0,2.209 1.791,4 4,4z"/>
 </g>
</svg>